<svg xmlns="http://www.w3.org/2000/svg" xmlns:xlink="http://www.w3.org/1999/xlink" viewBox="0 0 24 24"><defs><style>.cls-1{fill:url(#linear-gradient);}</style><linearGradient id="linear-gradient" x1="0.53" y1="23.47" x2="24" gradientUnits="userSpaceOnUse"><stop offset="0" stop-color="#3fa9f5"/><stop offset="1" stop-color="#ff7bac"/></linearGradient></defs><title>Asset 4</title><g id="Layer_2" data-name="Layer 2"><g id="Layer_1-2" data-name="Layer 1"><path class="cls-1" d="M24,0V9.82H22.55V2.48L10,15.06l-1-1L21.52,1.45H14.18V0ZM19.64,22.18a.37.37,0,0,1-.36.36H1.82a.37.37,0,0,1-.36-.36V4.73a.37.37,0,0,1,.36-.36H13.45V2.91H1.82A1.82,1.82,0,0,0,0,4.73V22.18A1.82,1.82,0,0,0,1.82,24H19.27a1.82,1.82,0,0,0,1.82-1.82V10.55H19.64Z"/></g></g></svg>