<svg xmlns="http://www.w3.org/2000/svg" width="148" height="59" viewBox="0 0 148 59" xmlns:xlink="http://www.w3.org/1999/xlink">
  <defs>
    <polygon id="a" points="11.781 .724 0 .724 0 13.05 11.781 13.05 11.781 .724"/>
    <polygon id="c" points="12.845 .724 .408 .724 .408 13.05 12.845 13.05 12.845 .724"/>
    <polygon id="e" points="0 59.276 147.981 59.276 147.981 1 0 1"/>
  </defs>
  <g fill="none" fill-rule="evenodd" transform="translate(0 -1)">
    <g transform="translate(0 .276)">
      <mask id="b" fill="white">
        <use xlink:href="#a"/>
      </mask>
      <path fill="#FFFFFF" d="M11.7812,6.3428 L11.7812,7.1428 C11.7812,8.9188 11.2682,10.3608 10.2282,11.4328 C9.2042,12.5048 7.8272,13.0498 6.0832,13.0498 C4.3052,13.0498 2.8332,12.4888 1.6972,11.3838 C0.5602,10.2808 0.0002,8.7758 0.0002,6.8868 C0.0002,4.9818 0.5602,3.4928 1.6972,2.3888 C2.8332,1.2838 4.2902,0.7238 6.0662,0.7238 C7.4752,0.7238 8.6762,1.0928 9.6832,1.8128 C10.6922,2.5318 11.3482,3.5418 11.6692,4.8378 L9.1072,5.2708 C8.7712,3.7978 7.6672,2.9168 6.0512,2.9168 C3.8572,2.9168 2.5122,4.2778 2.5122,6.8868 C2.5122,9.4948 3.8572,10.8568 6.0512,10.8568 C7.6032,10.8568 8.7082,10.1048 9.0762,8.5198 L6.0662,8.5198 L6.0662,6.3428 L11.7812,6.3428 Z" mask="url(#b)"/>
    </g>
    <polygon fill="#FFFFFF" points="17.842 10.957 23.06 10.957 23.06 13.149 15.361 13.149 15.361 1.177 17.842 1.177"/>
    <g transform="translate(25 .276)">
      <mask id="d" fill="white">
        <use xlink:href="#c"/>
      </mask>
      <path fill="#FFFFFF" d="M3.9453,3.9893 C3.2583,4.6943 2.9213,5.6543 2.9213,6.8863 C2.9213,8.1023 3.2583,9.0633 3.9453,9.7843 C4.6333,10.5043 5.5303,10.8563 6.6343,10.8563 C7.7393,10.8563 8.6203,10.5043 9.2923,9.7843 C9.9803,9.0633 10.3163,8.1023 10.3163,6.8863 C10.3163,5.6543 9.9803,4.6943 9.2923,3.9893 C8.6203,3.2683 7.7393,2.9173 6.6343,2.9173 C5.5303,2.9173 4.6333,3.2683 3.9453,3.9893 M11.1003,2.4213 C12.2693,3.5423 12.8453,5.0303 12.8453,6.8863 C12.8453,8.7433 12.2693,10.2313 11.1003,11.3683 C9.9323,12.4893 8.4433,13.0503 6.6343,13.0503 C4.8103,13.0503 3.3213,12.4893 2.1533,11.3683 C0.9843,10.2313 0.4083,8.7433 0.4083,6.8863 C0.4083,5.0303 0.9843,3.5423 2.1533,2.4213 C3.3213,1.2843 4.8103,0.7233 6.6343,0.7233 C8.4433,0.7233 9.9323,1.2843 11.1003,2.4213" mask="url(#d)"/>
    </g>
    <path fill="#FFFFFF" d="M43.8887 8.0752L43.8887 10.9572 46.4977 10.9572C47.5867 10.9572 48.1307 10.4762 48.1307 9.5312 48.1307 8.5552 47.4907 8.0752 46.5307 8.0752L43.8887 8.0752zM43.8887 3.3532L43.8887 5.9782 46.2747 5.9782C47.1867 5.9782 47.6507 5.5472 47.6507 4.6812 47.6507 3.8022 47.0907 3.3532 46.1467 3.3532L43.8887 3.3532zM41.4237 1.1772L46.4347 1.1772C48.6917 1.1772 50.1637 2.3292 50.1637 4.5062 50.1637 5.5472 49.7797 6.3302 48.9947 6.8592 49.9717 7.2432 50.6597 8.2352 50.6597 9.6602 50.6597 11.9002 49.1397 13.1492 46.7857 13.1492L41.4237 13.1492 41.4237 1.1772zM57.2979 8.8282L60.5309 8.8282 58.9139 5.0022 57.2979 8.8282zM65.0929 13.1492L62.3719 13.1492 61.3959 10.8452 56.4169 10.8452 55.4249 13.1492 52.7199 13.1492 57.8589 1.1772 59.9389 1.1772 65.0929 13.1492z"/>
    <polygon fill="#FFFFFF" points="70.497 10.957 75.715 10.957 75.715 13.149 68.016 13.149 68.016 1.177 70.497 1.177"/>
    <mask id="f" fill="white">
      <use xlink:href="#e"/>
    </mask>
    <polygon fill="#FFFFFF" points=".409 39.156 3.51 39.156 3.51 24.193 .409 24.193" mask="url(#f)"/>
    <polygon fill="#FFFFFF" points="20.792 39.156 18.171 39.156 11.609 29.894 11.609 39.156 8.509 39.156 8.509 24.193 11.13 24.193 17.711 33.474 17.711 24.193 20.792 24.193" mask="url(#f)"/>
    <polygon fill="#FFFFFF" points="38.072 39.156 35.451 39.156 28.889 29.894 28.889 39.156 25.789 39.156 25.789 24.193 28.41 24.193 34.991 33.474 34.991 24.193 38.072 24.193" mask="url(#f)"/>
    <path fill="#FFFFFF" d="M46.9697,28.0537 C46.1097,28.9337 45.6897,30.1347 45.6897,31.6747 C45.6897,33.1957 46.1097,34.3947 46.9697,35.2947 C47.8297,36.1957 48.9497,36.6357 50.3297,36.6357 C51.7107,36.6357 52.8107,36.1957 53.6517,35.2947 C54.5107,34.3947 54.9317,33.1957 54.9317,31.6747 C54.9317,30.1347 54.5107,28.9337 53.6517,28.0537 C52.8107,27.1547 51.7107,26.7127 50.3297,26.7127 C48.9497,26.7127 47.8297,27.1547 46.9697,28.0537 M55.9107,26.0937 C57.3717,27.4937 58.0917,29.3537 58.0917,31.6747 C58.0917,33.9947 57.3717,35.8557 55.9107,37.2757 C54.4507,38.6757 52.5907,39.3767 50.3297,39.3767 C48.0497,39.3767 46.1897,38.6757 44.7297,37.2757 C43.2687,35.8557 42.5487,33.9947 42.5487,31.6747 C42.5487,29.3537 43.2687,27.4937 44.7297,26.0937 C46.1897,24.6737 48.0497,23.9727 50.3297,23.9727 C52.5907,23.9727 54.4507,24.6737 55.9107,26.0937" mask="url(#f)"/>
    <polygon fill="#FFFFFF" points="69.631 39.156 67.03 39.156 60.73 24.193 64.11 24.193 68.331 34.355 72.532 24.193 75.933 24.193" mask="url(#f)"/>
    <path fill="#FFFFFF" d="M81.3896,33.7549 L85.4306,33.7549 L83.4106,28.9749 L81.3896,33.7549 Z M91.1316,39.1559 L87.7316,39.1559 L86.5106,36.2759 L80.2896,36.2759 L79.0496,39.1559 L75.6686,39.1559 L82.0896,24.1929 L84.6906,24.1929 L91.1316,39.1559 Z" mask="url(#f)"/>
    <polygon fill="#FFFFFF" points="103.871 26.914 98.87 26.914 98.87 39.156 95.79 39.156 95.79 26.914 90.768 26.914 90.768 24.193 103.871 24.193" mask="url(#f)"/>
    <polygon fill="#FFFFFF" points="107.749 39.156 110.85 39.156 110.85 24.193 107.749 24.193" mask="url(#f)"/>
    <path fill="#FFFFFF" d="M119.75,28.0537 C118.89,28.9337 118.47,30.1347 118.47,31.6747 C118.47,33.1957 118.89,34.3947 119.75,35.2947 C120.61,36.1957 121.73,36.6357 123.11,36.6357 C124.491,36.6357 125.591,36.1957 126.432,35.2947 C127.291,34.3947 127.712,33.1957 127.712,31.6747 C127.712,30.1347 127.291,28.9337 126.432,28.0537 C125.591,27.1547 124.491,26.7127 123.11,26.7127 C121.73,26.7127 120.61,27.1547 119.75,28.0537 M128.691,26.0937 C130.152,27.4937 130.872,29.3537 130.872,31.6747 C130.872,33.9947 130.152,35.8557 128.691,37.2757 C127.231,38.6757 125.371,39.3767 123.11,39.3767 C120.83,39.3767 118.97,38.6757 117.51,37.2757 C116.049,35.8557 115.329,33.9947 115.329,31.6747 C115.329,29.3537 116.049,27.4937 117.51,26.0937 C118.97,24.6737 120.83,23.9727 123.11,23.9727 C125.371,23.9727 127.231,24.6737 128.691,26.0937" mask="url(#f)"/>
    <polygon fill="#FFFFFF" points="147.632 39.156 145.011 39.156 138.449 29.894 138.449 39.156 135.349 39.156 135.349 24.193 137.97 24.193 144.551 33.474 144.551 24.193 147.632 24.193" mask="url(#f)"/>
    <path fill="#FFFFFF" d="M83.9526 51.8047L83.9526 54.3117 85.7516 54.3117C86.4826 54.3117 86.9986 53.8677 86.9986 53.0647 86.9986 52.2607 86.4826 51.8047 85.7516 51.8047L83.9526 51.8047zM82.1056 50.1737L85.9916 50.1737C86.8666 50.1737 87.5626 50.4257 88.0906 50.9417 88.6186 51.4567 88.8816 52.1647 88.8816 53.0647 88.8816 53.9637 88.6186 54.6707 88.0906 55.1867 87.5626 55.7027 86.8666 55.9537 85.9916 55.9537L83.9646 55.9537 83.9646 59.1447 82.1056 59.1447 82.1056 50.1737zM93.1567 54.2754L94.9197 54.2754C95.6517 54.2754 96.1547 53.8194 96.1547 53.0514 96.1547 52.2494 95.6517 51.8044 94.9197 51.8044L93.1567 51.8044 93.1567 54.2754zM96.4187 59.1444L94.6677 55.9194 93.1687 55.9194 93.1687 59.1444 91.3097 59.1444 91.3097 50.1734 95.1477 50.1734C96.0227 50.1734 96.7187 50.4254 97.2467 50.9414 97.7737 51.4454 98.0377 52.1524 98.0377 53.0514 98.0377 54.2874 97.5107 55.1744 96.5987 55.6194L98.5057 59.1444 96.4187 59.1444zM103.332 52.4883C102.816 53.0163 102.564 53.7353 102.564 54.6593 102.564 55.5703 102.816 56.2903 103.332 56.8303 103.848 57.3703 104.519 57.6343 105.347 57.6343 106.174 57.6343 106.834 57.3703 107.338 56.8303 107.853 56.2903 108.105 55.5703 108.105 54.6593 108.105 53.7353 107.853 53.0163 107.338 52.4883 106.834 51.9493 106.174 51.6843 105.347 51.6843 104.519 51.6843 103.848 51.9493 103.332 52.4883M108.693 51.3133C109.568 52.1523 110 53.2673 110 54.6593 110 56.0513 109.568 57.1663 108.693 58.0173 107.817 58.8573 106.702 59.2763 105.347 59.2763 103.979 59.2763 102.864 58.8573 101.989 58.0173 101.113 57.1663 100.682 56.0513 100.682 54.6593 100.682 53.2673 101.113 52.1523 101.989 51.3133 102.864 50.4623 103.979 50.0423 105.347 50.0423 106.702 50.0423 107.817 50.4623 108.693 51.3133M118.3184 50.1739L118.3184 55.9429C118.3184 58.0409 117.1314 59.2769 115.1644 59.2769 113.3054 59.2769 112.1174 58.1609 112.0094 56.2539L113.8684 55.9539C113.9284 57.0219 114.3964 57.6339 115.1764 57.6339 116.0394 57.6339 116.4714 57.0939 116.4714 56.0029L116.4714 50.1739 118.3184 50.1739z" mask="url(#f)"/>
    <polygon fill="#FFFFFF" points="127.018 51.805 123.12 51.805 123.12 53.748 126.502 53.748 126.502 55.343 123.12 55.343 123.12 57.502 127.03 57.502 127.03 59.145 121.261 59.145 121.261 50.174 127.018 50.174" mask="url(#f)"/>
    <path fill="#FFFFFF" d="M136.7612,50.9649 C137.5532,51.5769 138.0322,52.4159 138.1882,53.4599 L136.2572,53.6279 C136.0062,52.3809 135.1182,51.6849 133.8702,51.6849 C133.0792,51.6849 132.4442,51.9609 131.9642,52.4999 C131.4962,53.0399 131.2562,53.7599 131.2562,54.6589 C131.2562,55.6069 131.4962,56.3379 131.9882,56.8549 C132.4792,57.3699 133.1152,57.6339 133.8832,57.6339 C135.1302,57.6339 136.0172,56.9619 136.2572,55.7269 L138.2002,55.8949 C138.0322,56.9389 137.5532,57.7539 136.7732,58.3649 C135.9932,58.9769 135.0462,59.2769 133.9432,59.2769 C132.5992,59.2769 131.4962,58.8579 130.6442,58.0289 C129.7932,57.2019 129.3732,56.0739 129.3732,54.6589 C129.3732,53.2329 129.7932,52.1159 130.6442,51.2889 C131.4962,50.4619 132.5872,50.0419 133.9302,50.0419 C135.0342,50.0419 135.9822,50.3539 136.7612,50.9649" mask="url(#f)"/>
    <polygon fill="#FFFFFF" points="147.981 51.805 144.983 51.805 144.983 59.145 143.136 59.145 143.136 51.805 140.126 51.805 140.126 50.174 147.981 50.174" mask="url(#f)"/>
    <path fill="#FFFFFF" d="M147.8818 6.835C147.8818 7.802 147.0988 8.585 146.1318 8.585 145.1658 8.585 144.3818 7.802 144.3818 6.835 144.3818 5.869 145.1658 5.085 146.1318 5.085 147.0988 5.085 147.8818 5.869 147.8818 6.835M3.7915 54.6358C3.7915 55.6028 3.0075 56.3858 2.0415 56.3858 1.0745 56.3858.2915 55.6028.2915 54.6358.2915 53.6688 1.0745 52.8858 2.0415 52.8858 3.0075 52.8858 3.7915 53.6688 3.7915 54.6358" mask="url(#f)"/>
  </g>
</svg>
