<svg xmlns="http://www.w3.org/2000/svg" width="944" height="41" viewBox="0 0 944 41">
  <defs>
    <linearGradient id="a" x1="100%" x2="0%" y1="0%" y2="0%">
      <stop stop-color="#8B4B63" offset="0%"/>
      <stop stop-color="#9F93CF" offset="50.303%"/>
      <stop stop-color="#2E6285" offset="100%"/>
    </linearGradient>
  </defs>
  <polyline fill="none" stroke="url(#a)" points="1207.98 585 1184.431 548.576 1184.431 585 1160.881 548.576 1160.881 585 1137.332 548.576 1137.332 585 1113.782 548.576 1113.782 585 1090.233 548.576 1090.233 585 1066.683 548.576 1066.683 585 1043.134 548.576 1043.134 585 1019.584 548.576 1019.584 585 996.035 548.576 996.035 585 972.485 548.576 972.485 585 948.936 548.576 948.936 585 925.386 548.576 925.386 585 901.837 548.576 901.837 585 878.287 548.576 878.287 585 854.738 548.576 854.738 585 831.188 548.576 831.188 585 807.639 548.576 807.639 585 784.089 548.576 784.089 585 760.54 548.576 760.54 585 736.99 548.576 736.99 585 713.441 548.576 713.441 585 689.891 548.576 689.891 585 666.342 548.576 666.342 585 642.792 548.576 642.792 585 619.243 548.576 619.243 585 595.693 548.576 595.693 585 572.144 548.576 572.144 585 548.594 548.576 548.594 585 525.045 548.576 525.045 585 501.495 548.576 501.495 585 477.946 548.576 477.946 585 454.396 548.576 454.396 585 430.847 548.576 430.847 585 407.297 548.576 407.297 585 383.748 548.576 383.748 585 360.198 548.576 360.198 585 336.649 548.576 336.649 585 313.099 548.576 313.099 585 289.55 548.576 289.55 585 266 548.576" transform="translate(-265 -546)"/>
</svg>
