<svg xmlns="http://www.w3.org/2000/svg" width="943" height="42" viewBox="0 0 943 42">
  <defs>
    <linearGradient id="a" x1="100%" x2="0%" y1="0%" y2="0%">
      <stop stop-color="#8B4B63" offset="0%"/>
      <stop stop-color="#9F93CF" offset="50.303%"/>
      <stop stop-color="#2E6285" offset="100%"/>
    </linearGradient>
  </defs>
  <path fill="none" stroke="url(#a)" d="M266,546.768084 C275.672104,546.768084 270.835588,586.768084 280.507692,586.768084 C290.179797,586.768084 285.34328,546.768084 295.015385,546.768084 C304.687489,546.768084 299.850973,586.768084 309.523077,586.768084 C319.195181,586.768084 314.358665,546.768084 324.030769,546.768084 C333.702874,546.768084 328.866357,586.768084 338.538462,586.768084 C348.210566,586.768084 343.374049,546.768084 353.046154,546.768084 C362.718258,546.768084 357.881742,586.768084 367.553846,586.768084 C377.225951,586.768084 372.389434,546.768084 382.061538,546.768084 C391.733643,546.768084 386.897126,586.768084 396.569231,586.768084 C406.241335,586.768084 401.404819,546.768084 411.076923,546.768084 C420.749027,546.768084 415.912511,586.768084 425.584615,586.768084 C435.25672,586.768084 430.420203,546.768084 440.092308,546.768084 C449.764412,546.768084 444.927896,586.768084 454.6,586.768084 C464.272104,586.768084 459.435588,546.768084 469.107692,546.768084 C478.779797,546.768084 473.94328,586.768084 483.615385,586.768084 C493.287489,586.768084 488.450973,546.768084 498.123077,546.768084 C507.795181,546.768084 502.958665,586.768084 512.630769,586.768084 C522.302874,586.768084 517.466357,546.768084 527.138462,546.768084 C536.810566,546.768084 531.974049,586.768084 541.646154,586.768084 C551.318258,586.768084 546.481742,546.768084 556.153846,546.768084 C565.825951,546.768084 560.989434,586.768084 570.661538,586.768084 C580.333643,586.768084 575.497126,546.768084 585.169231,546.768084 C594.841335,546.768084 590.004819,586.768084 599.676923,586.768084 C609.349027,586.768084 604.512511,546.768084 614.184615,546.768084 C623.85672,546.768084 619.020203,586.768084 628.692308,586.768084 C638.364412,586.768084 633.527896,546.768084 643.2,546.768084 C652.872104,546.768084 648.035588,586.768084 657.707692,586.768084 C667.379797,586.768084 662.54328,546.768084 672.215385,546.768084 C681.887489,546.768084 677.050973,586.768084 686.723077,586.768084 C696.395181,586.768084 691.558665,546.768084 701.230769,546.768084 C710.902874,546.768084 706.066357,586.768084 715.738462,586.768084 C725.410566,586.768084 720.574049,546.768084 730.246154,546.768084 C739.918258,546.768084 735.081742,586.768084 744.753846,586.768084 C754.425951,586.768084 749.589434,546.768084 759.261538,546.768084 C768.933643,546.768084 764.097126,586.768084 773.769231,586.768084 C783.441335,586.768084 778.604819,546.768084 788.276923,546.768084 C797.949027,546.768084 793.112511,586.768084 802.784615,586.768084 C812.45672,586.768084 807.620203,546.768084 817.292308,546.768084 C826.964412,546.768084 822.127896,586.768084 831.8,586.768084 C841.472104,586.768084 836.635588,546.768084 846.307692,546.768084 C855.979797,546.768084 851.14328,586.768084 860.815385,586.768084 C870.487489,586.768084 865.650973,546.768084 875.323077,546.768084 C884.995181,546.768084 880.158665,586.768084 889.830769,586.768084 C899.502874,586.768084 894.666357,546.768084 904.338462,546.768084 C914.010566,546.768084 909.174049,586.768084 918.846154,586.768084 C928.518258,586.768084 923.681742,546.768084 933.353846,546.768084 C943.025951,546.768084 938.189434,586.768084 947.861538,586.768084 C957.533643,586.768084 952.697126,546.768084 962.369231,546.768084 C972.041335,546.768084 967.204819,586.768084 976.876923,586.768084 C986.549027,586.768084 981.712511,546.768084 991.384615,546.768084 C1001.05672,546.768084 996.220203,586.768084 1005.89231,586.768084 C1015.56441,586.768084 1010.7279,546.768084 1020.4,546.768084 C1030.0721,546.768084 1025.23559,586.768084 1034.90769,586.768084 C1044.5798,586.768084 1039.74328,546.768084 1049.41538,546.768084 C1059.08749,546.768084 1054.25097,586.768084 1063.92308,586.768084 C1073.59518,586.768084 1068.75866,546.768084 1078.43077,546.768084 C1088.10287,546.768084 1083.26636,586.768084 1092.93846,586.768084 C1102.61057,586.768084 1097.77405,546.768084 1107.44615,546.768084 C1117.11826,546.768084 1112.28174,586.768084 1121.95385,586.768084 C1131.62595,586.768084 1126.78943,546.768084 1136.46154,546.768084 C1146.13364,546.768084 1141.29713,586.768084 1150.96923,586.768084 C1160.64134,586.768084 1155.80482,546.768084 1165.47692,546.768084 C1175.14903,546.768084 1170.31251,586.768084 1179.98462,586.768084 C1189.65672,586.768084 1184.8202,546.768084 1194.49231,546.768084 C1204.16441,546.768084 1199.3279,586.768084 1209,586.768084" transform="translate(-266 -546)"/>
</svg>
