<svg xmlns="http://www.w3.org/2000/svg" width="945" height="43" viewBox="0 0 945 43">
  <defs>
    <linearGradient id="a" x1="100%" x2="0%" y1="0%" y2="0%">
      <stop stop-color="#8B4B63" offset="0%"/>
      <stop stop-color="#9F93CF" offset="50.303%"/>
      <stop stop-color="#2E6285" offset="100%"/>
    </linearGradient>
  </defs>
  <polygon fill="none" stroke="url(#a)" points="737.5 539.506 690.35 579.506 643.2 539.506 596.05 579.506 548.9 539.506 501.75 579.506 454.6 539.506 407.45 579.506 360.3 539.506 313.15 579.506 266 539.506 266 579.506 313.15 539.506 360.3 579.506 407.45 539.506 454.6 579.506 501.75 539.506 548.9 579.506 596.05 539.506 643.2 579.506 690.35 539.506 737.5 579.506 784.65 539.506 831.8 579.506 878.95 539.506 926.1 579.506 973.25 539.506 1020.4 579.506 1067.55 539.506 1114.7 579.506 1161.85 539.506 1209 579.506 1209 539.506 1161.85 579.506 1114.7 539.506 1067.55 579.506 1020.4 539.506 973.25 579.506 926.1 539.506 878.95 579.506 831.8 539.506 784.65 579.506" transform="translate(-265 -538)"/>
</svg>
