<svg xmlns="http://www.w3.org/2000/svg" width="944" height="41" viewBox="0 0 944 41">
  <defs>
    <linearGradient id="a" x1="100%" x2="0%" y1="0%" y2="0%">
      <stop stop-color="#8B4B63" offset="0%"/>
      <stop stop-color="#9F93CF" offset="50.303%"/>
      <stop stop-color="#2E6285" offset="100%"/>
    </linearGradient>
  </defs>
  <path fill="none" stroke="url(#a)" d="M236.731021,551.758737 C252.94741,551.758737 261.055135,591 244.838745,591 C228.623296,591 236.731021,551.758737 252.94741,551.758737 L252.94835,551.758737 C269.164739,551.758737 277.273404,591 261.057014,591 C244.840625,591 252.94835,551.758737 269.164739,551.758737 C285.381128,551.758737 293.489793,591 277.273404,591 C261.057014,591 269.164739,551.758737 285.381128,551.758737 L285.383008,551.758737 C301.598458,551.758737 309.707122,591 293.490733,591 C277.274344,591 285.383008,551.758737 301.598458,551.758737 C317.814847,551.758737 325.923511,591 309.707122,591 C293.490733,591 301.598458,551.758737 317.814847,551.758737 L317.816727,551.758737 C334.033116,551.758737 342.14084,591 325.924451,591 C309.708062,591 317.816727,551.758737 334.033116,551.758737 C350.248565,551.758737 358.35723,591 342.14084,591 C325.924451,591 334.033116,551.758737 350.248565,551.758737 L350.250445,551.758737 C366.466834,551.758737 374.574559,591 358.35817,591 C342.14272,591 350.250445,551.758737 366.466834,551.758737 L366.469654,551.758737 C382.686043,551.758737 390.793768,591 374.577379,591 C358.360989,591 366.469654,551.758737 382.686043,551.758737 L382.686983,551.758737 C398.903372,551.758737 407.011097,591 390.794708,591 C374.579258,591 382.686983,551.758737 398.903372,551.758737 C415.119762,551.758737 423.227486,591 407.011097,591 C390.794708,591 398.903372,551.758737 415.119762,551.758737 L415.120702,551.758737 C431.337091,551.758737 439.445755,591 423.229366,591 C407.012977,591 415.120702,551.758737 431.337091,551.758737 C447.55348,551.758737 455.661205,591 439.445755,591 C423.229366,591 431.337091,551.758737 447.55348,551.758737 L447.55442,551.758737 C463.770809,551.758737 471.879474,591 455.663085,591 C439.446695,591 447.55442,551.758737 463.770809,551.758737 C479.987198,551.758737 488.095863,591 471.879474,591 C455.663085,591 463.770809,551.758737 479.987198,551.758737 L479.989078,551.758737 C496.205468,551.758737 504.313192,591 488.096803,591 C471.880414,591 479.989078,551.758737 496.205468,551.758737 L496.205468,551.758737 C512.421857,551.758737 520.529581,591 504.313192,591 C488.097743,591 496.205468,551.758737 512.421857,551.758737 L512.422797,551.758737 C528.639186,551.758737 536.74785,591 520.531461,591 C504.315072,591 512.422797,551.758737 528.639186,551.758737 C544.855575,551.758737 552.96424,591 536.74785,591 C520.531461,591 528.639186,551.758737 544.855575,551.758737 L544.857455,551.758737 C561.072904,551.758737 569.181569,591 552.96518,591 C536.74879,591 544.857455,551.758737 561.072904,551.758737 C577.289294,551.758737 585.397958,591 569.181569,591 C552.96518,591 561.072904,551.758737 577.289294,551.758737 L577.291173,551.758737 C593.507563,551.758737 601.615287,591 585.398898,591 C569.182509,591 577.291173,551.758737 593.507563,551.758737 C609.723952,551.758737 617.831677,591 601.615287,591 C585.398898,591 593.507563,551.758737 609.723952,551.758737 L609.724892,551.758737 C625.941281,551.758737 634.049006,591 617.832616,591 C601.617167,591 609.724892,551.758737 625.941281,551.758737 L625.944101,551.758737 C642.16049,551.758737 650.268215,591 634.051825,591 C617.835436,591 625.944101,551.758737 642.16049,551.758737 L642.16143,551.758737 C658.377819,551.758737 666.485544,591 650.270095,591 C634.053705,591 642.16143,551.758737 658.377819,551.758737 C674.594208,551.758737 682.701933,591 666.485544,591 C650.270095,591 658.377819,551.758737 674.594208,551.758737 L674.595148,551.758737 C690.811538,551.758737 698.920202,591 682.703813,591 C666.487424,591 674.595148,551.758737 690.811538,551.758737 C707.027927,551.758737 715.135652,591 698.920202,591 C682.703813,591 690.811538,551.758737 707.027927,551.758737 L707.029807,551.758737 C723.245256,551.758737 731.353921,591 715.137531,591 C698.921142,591 707.029807,551.758737 723.245256,551.758737 C739.461645,551.758737 747.57031,591 731.353921,591 C715.137531,591 723.245256,551.758737 739.461645,551.758737 L739.463525,551.758737 C755.679914,551.758737 763.787639,591 747.57125,591 C731.354861,591 739.463525,551.758737 755.679914,551.758737 C771.896304,551.758737 780.004028,591 763.787639,591 C747.57125,591 755.679914,551.758737 771.896304,551.758737 L771.897243,551.758737 C788.113633,551.758737 796.221357,591 780.004968,591 C763.789519,591 771.897243,551.758737 788.113633,551.758737 C804.330022,551.758737 812.437747,591 796.221357,591 C780.004968,591 788.113633,551.758737 804.330022,551.758737 L804.330962,551.758737 C820.547351,551.758737 828.655076,591 812.439626,591 C796.223237,591 804.330962,551.758737 820.547351,551.758737 C836.76374,551.758737 844.871465,591 828.655076,591 C812.439626,591 820.547351,551.758737 836.76374,551.758737 L836.76468,551.758737 C852.98107,551.758737 861.089734,591 844.873345,591 C828.656956,591 836.76468,551.758737 852.98107,551.758737 C869.197459,551.758737 877.305183,591 861.089734,591 C844.873345,591 852.98107,551.758737 869.197459,551.758737 L869.198399,551.758737 C885.414788,551.758737 893.523453,591 877.307063,591 C861.090674,591 869.198399,551.758737 885.414788,551.758737 L885.417608,551.758737 C901.633997,551.758737 909.742662,591 893.526272,591 C877.309883,591 885.417608,551.758737 901.633997,551.758737 L901.635877,551.758737 C917.852266,551.758737 925.959991,591 909.743601,591 C893.527212,591 901.635877,551.758737 917.852266,551.758737 C934.067715,551.758737 942.17638,591 925.959991,591 C909.743601,591 917.852266,551.758737 934.067715,551.758737 L934.069595,551.758737 C950.285984,551.758737 958.393709,591 942.17732,591 C925.960931,591 934.069595,551.758737 950.285984,551.758737 C966.502374,551.758737 974.610098,591 958.393709,591 C942.17732,591 950.285984,551.758737 966.502374,551.758737 L966.503314,551.758737 C982.719703,551.758737 990.827427,591 974.611038,591 C958.395589,591 966.503314,551.758737 982.719703,551.758737 C998.936092,551.758737 1007.04382,591 990.827427,591 C974.611038,591 982.719703,551.758737 998.936092,551.758737 L998.937032,551.758737 C1015.15342,551.758737 1023.26209,591 1007.0457,591 C990.829307,591 998.937032,551.758737 1015.15342,551.758737 L1015.15436,551.758737 C1031.37075,551.758737 1039.47848,591 1023.26209,591 C1007.0457,591 1015.15436,551.758737 1031.37075,551.758737 L1031.37169,551.758737 C1047.58808,551.758737 1055.6958,591 1039.47941,591 C1023.26397,591 1031.37169,551.758737 1047.58808,551.758737 C1063.80447,551.758737 1071.91219,591 1055.6958,591 C1039.47941,591 1047.58808,551.758737 1063.80447,551.758737 L1063.80541,551.758737 C1080.0218,551.758737 1088.12952,591 1071.91407,591 C1055.69768,591 1063.80541,551.758737 1080.0218,551.758737 C1096.23819,551.758737 1104.34591,591 1088.12952,591 C1071.91407,591 1080.0218,551.758737 1096.23819,551.758737 L1096.23913,551.758737 C1112.45552,551.758737 1120.56418,591 1104.34779,591 C1088.1314,591 1096.23913,551.758737 1112.45552,551.758737 C1128.67191,551.758737 1136.77963,591 1120.56418,591 C1104.34779,591 1112.45552,551.758737 1128.67191,551.758737 L1128.67379,551.758737 C1144.88923,551.758737 1152.9979,591 1136.78151,591 C1120.56512,591 1128.67379,551.758737 1144.88923,551.758737 L1144.89205,551.758737 C1161.10844,551.758737 1169.21711,591 1153.00072,591 C1136.78433,591 1144.89205,551.758737 1161.10844,551.758737 L1161.11032,551.758737 C1177.32671,551.758737 1185.43444,591 1169.21805,591" transform="translate(-235 -551)"/>
</svg>
